<svg width="44" height="25" viewBox="0 0 44 25" fill="none" xmlns="http://www.w3.org/2000/svg">
<path d="M41.542 0H23.257c-1.326 0-2.405 1.057-2.405 2.357v12.268c0 1.299 1.079 2.357 2.405 2.357H34.76l2.97 3.162a.814.814 0 00.875.17c.3-.121.368-.408.368-.726v-2.606h2.57c1.325 0 2.457-1.059 2.457-2.357V2.357C44 1.057 42.868 0 41.542 0zM27.394 10c-.833 0-1.51-.671-1.51-1.5s.677-1.5 1.51-1.5 1.51.671 1.51 1.5-.677 1.5-1.51 1.5zm5.032 0c-.833 0-1.51-.671-1.51-1.5s.677-1.5 1.51-1.5 1.51.671 1.51 1.5-.677 1.5-1.51 1.5zm5.032 0c-.833 0-1.51-.671-1.51-1.5s.677-1.5 1.51-1.5c.834 0 1.51.671 1.51 1.5s-.677 1.5-1.51 1.5z" fill="#F06623" />
<path d="M32.704 22.075a.169.169 0 00-.128-.06H.169a.164.164 0 00-.128.06.17.17 0 00-.04.136C.008 22.24.22 25 4.07 25h24.51c3.85 0 4.156-2.758 4.162-2.79a.174.174 0 00-.04-.135zm-13.906 1.85h-4.946v-.93h4.946v.93zM3.804 21.01h25.199c.377 0 .902-.59.902-.969v-2.07l-3.015.031v-.025H5.76V6.971h14.071l.014-2.97H3.836c-.377 0-1.092.621-1.092 1V20.01c.001.38.683 1 1.06 1z" fill="#1667A3" />
</svg>