<svg width="18" height="18" viewBox="0 0 18 18" fill="none" xmlns="http://www.w3.org/2000/svg">
    <path d="M14.573 11.564a3.229 3.229 0 00-2.554 1.256l-4.954-2.762a3.223 3.223 0 00-.003-2.127l4.95-2.758a3.221 3.221 0 002.557 1.263 3.226 3.226 0 003.224-3.218 3.224 3.224 0 00-6.448 0c0 .374.064.733.184 1.065L6.582 7.042a3.21 3.21 0 00-2.557-1.264A3.226 3.226 0 00.8 8.996a3.227 3.227 0 005.789 1.951l4.95 2.762c-.12.337-.187.7-.187 1.073a3.224 3.224 0 006.448 0 3.227 3.227 0 00-3.228-3.218z" fill="#B3C6D7"/>
</svg>
