<svg width="18" height="18" viewBox="0 0 18 18" fill="none" xmlns="http://www.w3.org/2000/svg">
<path d="M9 4C5.56 4 2.442 5.754.14 8.602a.628.628 0 000 .793C2.443 12.246 5.56 14 9 14c3.44 0 6.558-1.754 8.86-4.602a.628.628 0 000-.793C15.557 5.754 12.44 4 9 4zm.247 8.52c-2.283.135-4.168-1.619-4.025-3.75.118-1.757 1.646-3.181 3.531-3.29 2.283-.135 4.168 1.619 4.025 3.75-.122 1.753-1.65 3.178-3.531 3.29zm-.114-1.626c-1.23.072-2.247-.871-2.166-2.018.063-.947.888-1.712 1.904-1.774 1.23-.072 2.246.872 2.165 2.018-.066.95-.89 1.716-1.903 1.774z" fill="#B3C6D7" />
</svg>