<svg width="44" height="30" viewBox="0 0 44 30" fill="none" xmlns="http://www.w3.org/2000/svg">
<path fill-rule="evenodd" clip-rule="evenodd" d="M43.417 17.33l-.307-1.272-.484-1.176-1.356-.83-.19-1.146-.082-1.09s-.01-1.464.188-1.705c.197-.242.617-1.33.617-1.33l-1.16-.192s-.84-.925-.839-1.165c.002-.24 1.445-1.23 1.445-1.23l-.78-.567s-1.51 1.141-1.75 1.316c-.24.175-1.536.776-1.536.776l-.217.858-.527 1.083s-1.979 1.52-2.236 1.541c-.19.015-1.009.294-1.438.443-2.358 5.34-7.51 10.82-7.792 11.116a.899.899 0 01-1.286 0 55.996 55.996 0 01-5.155-6.462c-.458.034-.958.037-.958.037l.314-1.022c-.095-.149-.19-.298-.283-.448-.157-.006-.407-.015-.572-.023-.25-.014-1.12-.36-1.12-.36l-1.004-.112s-1.221-.632-1.346-.896c-.124-.265-1.857-.72-1.857-.72l-1.344-.112-.699-.461.39-.525 1.021-.74.257-1.796-1.3.202-2.618 1.769-1.343.073-2.045 1.069-.068 1.093-1.35 1.154s-.066 1.259-.147 1.516c-.08.256.044 1.14.044 1.14l-.31 1.36-.777.446L0 19.28s.165 1.416.211 1.624c.046.206.628 1.386.628 1.386l.025 1.051.564.866.44-1.16.542-.506 1.132-.15.36-.283.002-1.28 1.085-.49 1.465-.033.868.74.19 1.133 1.848 1.08.35-.42.724-1.138 1.272.525 2.195.404.505 1.064 1.153.223.448.585s.095.628.11.939c.014.31.456.986.456.986l1.182.183.643 1.146 1.156.114 1.573-.204.873.628.5.477 1.187.574.813-.574 1.281-.477 1.035-.457 1.497-.171.687-1.44 1.5.201.788-.243-.052-.893-.11-.616s.93-.324 1.153-.351c.223-.027.822-.072.822-.072s1.182.668 1.182.929c0 .26.802.587.802.587l1.244.395.727.15.829-.784.297.696.004 1.052-.642.795.545.929.742-.23.522-.477.314-1.972.107-2.242-1.141-1.85-.548-.447-.817.472-1.216-.184.46-1.02.01-1.593-.172-1.275.846-.687.82-.83.793-.685.216-.57-.418-.961.33-.798.587-.797.505.094s.631.766.67.966c.038.2.019 1.472.019 1.472l.667 1.884 2.172 1.514.443-.303-.583-1.151z" fill="#1667A3"></path>
<path d="M24.283 0c-4.172 0-7.567 3.375-7.567 7.524 0 5.148 6.772 12.708 7.06 13.027.272.3.743.3 1.013 0 .29-.318 7.06-7.878 7.06-13.027C31.85 3.375 28.456 0 24.284 0zm0 11.31c-2.1 0-3.808-1.698-3.808-3.786 0-2.087 1.708-3.786 3.808-3.786 2.1 0 3.808 1.698 3.808 3.786s-1.709 3.786-3.808 3.786z" fill="#F06623"></path>
</svg>