<svg xmlns="http://www.w3.org/2000/svg" xmlns:xlink="http://www.w3.org/1999/xlink" viewBox="0 0 30 30" width="30px" height="30px"><defs><style>.a{fill:url(#a);}.b{fill:url(#b);}</style><radialGradient id="a" cx="4.05" cy="27.3" r="32.62" gradientUnits="userSpaceOnUse"><stop offset="0" stop-color="#fae100"/><stop offset="0.05" stop-color="#fadc04"/><stop offset="0.12" stop-color="#fbce0e"/><stop offset="0.18" stop-color="#fcb720"/><stop offset="0.25" stop-color="#fe9838"/><stop offset="0.31" stop-color="#ff7950"/><stop offset="0.49" stop-color="#ff1c74"/><stop offset="1" stop-color="#6c1cd1"/></radialGradient><radialGradient id="b" cx="4.05" cy="27.3" r="32.62" gradientTransform="translate(0.26)" xlink:href="#a"/></defs><title>Безымянный-2</title><path class="a" d="M20.63,8.92l-.13-.11-.27-.18c-.1-.05-.19-.11-.29-.15a3.31,3.31,0,0,0-1.47-.34H11.53a3.39,3.39,0,0,0-3.39,3.39v6.94a3.39,3.39,0,0,0,3.39,3.39h6.94a3.39,3.39,0,0,0,3.39-3.39V11.53a3.4,3.4,0,0,0-1-2.4C20.79,9.06,20.71,9,20.63,8.92Zm-5.4,10.52H15a4.44,4.44,0,0,1,0-8.88h0a4.4,4.4,0,0,1,1.92.44l.38.2.18.12a4.76,4.76,0,0,1,1.08,1l.24.36a4.58,4.58,0,0,1,.44,1c0,.14.08.28.11.43s0,.29.07.44,0,.3,0,.45A4.45,4.45,0,0,1,15.23,19.44Zm4.22-7.78a1.07,1.07,0,1,1,1.06-1.07A1.06,1.06,0,0,1,19.45,11.66Z"/><path class="b" d="M15,12.29a2.71,2.71,0,1,0,2.7,3,2.62,2.62,0,0,0,0-.28A2.71,2.71,0,0,0,15,12.29Z"/><path class="a" d="M15,0A15,15,0,1,0,30,15,15,15,0,0,0,15,0Zm8.59,18.47A5.13,5.13,0,0,1,19,23.56a4.41,4.41,0,0,1-.52,0H11.53a5.13,5.13,0,0,1-5.12-5.12V11.53a5.13,5.13,0,0,1,5.12-5.12h6.94A5.09,5.09,0,0,1,22,7.83l.17.17a5.09,5.09,0,0,1,1.42,3.53Z"/></svg>